# xmcd
#
# Track frame offsets:
#	150
#	16020
#	29679
#	43117
#	60770
#	75421
#	87276
#	103862
#	120372
#	137391
#	154461
#	169700
#
# Disc length: 2853 seconds
#
# Revision: 1
# Processed by: cddbd v1.5.1PL0 Copyright (c) Steve Scherf et al.
# Submitted via: audiograbber 1.83.01
#
DISCID=870b230c
DTITLE=Companions - slow September days
DYEAR=2002
DGENRE=Vollblut-Musiker
TTITLE0=Hometown
TTITLE1=waste of time
TTITLE2=finally again
TTITLE3=Pourquoi Màs tu Telephone`
TTITLE4=flatlines
TTITLE5=here and now
TTITLE6=take me away
TTITLE7=a dream
TTITLE8=picture in my mind
TTITLE9=slow September days
TTITLE10=seven wonders
TTITLE11=dust on my soul
EXTD=Ralf Gottschald, Herrmann Sawalich and friends
EXTT0=
EXTT1=
EXTT2=
EXTT3=
EXTT4=
EXTT5=
EXTT6=
EXTT7=
EXTT8=
EXTT9=
EXTT10=
EXTT11=
PLAYORDER=
